<svg xmlns="http://www.w3.org/2000/svg" width="512" height="512" viewBox="0 0 512 512" role="img" aria-label="Designer agent avatar">
<rect x="0" y="0" width="512" height="512" fill="#2f261c"/>
<line x1="32" y1="0" x2="32" y2="512" stroke="#e0c98f" stroke-width="1" stroke-opacity="0.18" stroke-linecap="round"/><line x1="0" y1="32" x2="512" y2="32" stroke="#e0c98f" stroke-width="1" stroke-opacity="0.18" stroke-linecap="round"/><line x1="64" y1="0" x2="64" y2="512" stroke="#e0c98f" stroke-width="1" stroke-opacity="0.18" stroke-linecap="round"/><line x1="0" y1="64" x2="512" y2="64" stroke="#e0c98f" stroke-width="1" stroke-opacity="0.18" stroke-linecap="round"/><line x1="96" y1="0" x2="96" y2="512" stroke="#e0c98f" stroke-width="1" stroke-opacity="0.18" stroke-linecap="round"/><line x1="0" y1="96" x2="512" y2="96" stroke="#e0c98f" stroke-width="1" stroke-opacity="0.18" stroke-linecap="round"/><line x1="128" y1="0" x2="128" y2="512" stroke="#e0c98f" stroke-width="1" stroke-opacity="0.18" stroke-linecap="round"/><line x1="0" y1="128" x2="512" y2="128" stroke="#e0c98f" stroke-width="1" stroke-opacity="0.18" stroke-linecap="round"/><line x1="160" y1="0" x2="160" y2="512" stroke="#e0c98f" stroke-width="1" stroke-opacity="0.18" stroke-linecap="round"/><line x1="0" y1="160" x2="512" y2="160" stroke="#e0c98f" stroke-width="1" stroke-opacity="0.18" stroke-linecap="round"/><line x1="192" y1="0" x2="192" y2="512" stroke="#e0c98f" stroke-width="1" stroke-opacity="0.18" stroke-linecap="round"/><line x1="0" y1="192" x2="512" y2="192" stroke="#e0c98f" stroke-width="1" stroke-opacity="0.18" stroke-linecap="round"/><line x1="224" y1="0" x2="224" y2="512" stroke="#e0c98f" stroke-width="1" stroke-opacity="0.18" stroke-linecap="round"/><line x1="0" y1="224" x2="512" y2="224" stroke="#e0c98f" stroke-width="1" stroke-opacity="0.18" stroke-linecap="round"/><line x1="256" y1="0" x2="256" y2="512" stroke="#e0c98f" stroke-width="1" stroke-opacity="0.18" stroke-linecap="round"/><line x1="0" y1="256" x2="512" y2="256" stroke="#e0c98f" stroke-width="1" stroke-opacity="0.18" stroke-linecap="round"/><line x1="288" y1="0" x2="288" y2="512" stroke="#e0c98f" stroke-width="1" stroke-opacity="0.18" stroke-linecap="round"/><line x1="0" y1="288" x2="512" y2="288" stroke="#e0c98f" stroke-width="1" stroke-opacity="0.18" stroke-linecap="round"/><line x1="320" y1="0" x2="320" y2="512" stroke="#e0c98f" stroke-width="1" stroke-opacity="0.18" stroke-linecap="round"/><line x1="0" y1="320" x2="512" y2="320" stroke="#e0c98f" stroke-width="1" stroke-opacity="0.18" stroke-linecap="round"/><line x1="352" y1="0" x2="352" y2="512" stroke="#e0c98f" stroke-width="1" stroke-opacity="0.18" stroke-linecap="round"/><line x1="0" y1="352" x2="512" y2="352" stroke="#e0c98f" stroke-width="1" stroke-opacity="0.18" stroke-linecap="round"/><line x1="384" y1="0" x2="384" y2="512" stroke="#e0c98f" stroke-width="1" stroke-opacity="0.18" stroke-linecap="round"/><line x1="0" y1="384" x2="512" y2="384" stroke="#e0c98f" stroke-width="1" stroke-opacity="0.18" stroke-linecap="round"/><line x1="416" y1="0" x2="416" y2="512" stroke="#e0c98f" stroke-width="1" stroke-opacity="0.18" stroke-linecap="round"/><line x1="0" y1="416" x2="512" y2="416" stroke="#e0c98f" stroke-width="1" stroke-opacity="0.18" stroke-linecap="round"/><line x1="448" y1="0" x2="448" y2="512" stroke="#e0c98f" stroke-width="1" stroke-opacity="0.18" stroke-linecap="round"/><line x1="0" y1="448" x2="512" y2="448" stroke="#e0c98f" stroke-width="1" stroke-opacity="0.18" stroke-linecap="round"/><line x1="480" y1="0" x2="480" y2="512" stroke="#e0c98f" stroke-width="1" stroke-opacity="0.18" stroke-linecap="round"/><line x1="0" y1="480" x2="512" y2="480" stroke="#e0c98f" stroke-width="1" stroke-opacity="0.18" stroke-linecap="round"/>

<rect x="124" y="402" width="44" height="110" fill="#8a6d1f" rx="22" stroke="#2f261c" stroke-width="5"/>
<rect x="344" y="402" width="44" height="110" fill="#8a6d1f" rx="22" stroke="#2f261c" stroke-width="5"/>
<path d="M158 512 Q158 392 256 392 Q354 392 354 512 Z" fill="#8a6d1f"/>
<rect x="232" y="344" width="48" height="56" fill="#8a6d1f"/>
<circle cx="200" cy="142" r="8" fill="#7f9c5a"/><circle cx="312" cy="142" r="8" fill="#7f9c5a"/>
<path d="M256 138 Q368 138 368 246 Q368 348 256 348 Q144 348 144 246 Q144 138 256 138 Z" fill="#c9a227"/>
<circle cx="214" cy="238" r="26" fill="#7f9c5a"/><circle cx="298" cy="238" r="26" fill="#7f9c5a"/><circle cx="256" cy="304" r="17" fill="none" stroke="#8a6d1f" stroke-width="7"/>
<circle cx="146" cy="486" r="27" fill="#7f9c5a"/><circle cx="366" cy="486" r="27" fill="#7f9c5a"/>
</svg>
