<svg xmlns="http://www.w3.org/2000/svg" width="512" height="512" viewBox="0 0 512 512" role="img" aria-label="Scout agent avatar">
<rect x="0" y="0" width="512" height="512" fill="#f5e6f7"/>
<circle cx="256" cy="256" r="270" fill="none" stroke="#ffe8a3" stroke-width="1.5" stroke-opacity="0.1"/><circle cx="256" cy="256" r="198.00000000000003" fill="none" stroke="#ffe8a3" stroke-width="1.5" stroke-opacity="0.14"/><circle cx="256" cy="256" r="135" fill="none" stroke="#ffe8a3" stroke-width="1.5" stroke-opacity="0.18"/>

<rect x="124" y="402" width="44" height="110" fill="#d99bb0" rx="22" stroke="#f5e6f7" stroke-width="5"/>
<rect x="344" y="402" width="44" height="110" fill="#d99bb0" rx="22" stroke="#f5e6f7" stroke-width="5"/>
<path d="M158 512 Q158 392 256 392 Q354 392 354 512 Z" fill="#d99bb0"/>
<rect x="232" y="344" width="48" height="56" fill="#d99bb0"/>
<line x1="300" y1="150" x2="330" y2="106" stroke="#d99bb0" stroke-width="5" stroke-opacity="1" stroke-linecap="round"/><circle cx="332" cy="100" r="9" fill="#9ad0ec"/>
<path d="M186 146 H326 Q346 146 346 172 V318 Q346 346 316 346 H196 Q166 346 166 318 V172 Q166 146 186 146 Z" fill="#fbc7d4"/>
<path d="M190 218 L244 232 L244 246 L190 236 Z" fill="#9ad0ec"/><path d="M322 218 L268 232 L268 246 L322 236 Z" fill="#9ad0ec"/><path d="M214 296 H298" fill="none" stroke="#d99bb0" stroke-width="8" stroke-opacity="1" stroke-linecap="round"/>
<rect x="178" y="474" width="72" height="38" fill="#9ad0ec" rx="12"/><rect x="262" y="474" width="72" height="38" fill="#9ad0ec" rx="12"/>
</svg>
