<svg xmlns="http://www.w3.org/2000/svg" width="512" height="512" viewBox="0 0 512 512" role="img" aria-label="Operator agent avatar">
<rect x="0" y="0" width="512" height="512" fill="#1c1c1f"/>
<path d="M0 70 Q128 48 256 70 T512 70" fill="none" stroke="#b0b0b8" stroke-width="2.5" stroke-opacity="0.16" stroke-linecap="round"/><path d="M0 132 Q128 110 256 132 T512 132" fill="none" stroke="#b0b0b8" stroke-width="2.5" stroke-opacity="0.16" stroke-linecap="round"/><path d="M0 194 Q128 172 256 194 T512 194" fill="none" stroke="#b0b0b8" stroke-width="2.5" stroke-opacity="0.16" stroke-linecap="round"/><path d="M0 256 Q128 234 256 256 T512 256" fill="none" stroke="#b0b0b8" stroke-width="2.5" stroke-opacity="0.16" stroke-linecap="round"/><path d="M0 318 Q128 296 256 318 T512 318" fill="none" stroke="#b0b0b8" stroke-width="2.5" stroke-opacity="0.16" stroke-linecap="round"/><path d="M0 380 Q128 358 256 380 T512 380" fill="none" stroke="#b0b0b8" stroke-width="2.5" stroke-opacity="0.16" stroke-linecap="round"/><path d="M0 442 Q128 420 256 442 T512 442" fill="none" stroke="#b0b0b8" stroke-width="2.5" stroke-opacity="0.16" stroke-linecap="round"/>

<rect x="124" y="402" width="44" height="110" fill="#8a8a90" rx="22" stroke="#1c1c1f" stroke-width="5"/>
<rect x="344" y="402" width="44" height="110" fill="#8a8a90" rx="22" stroke="#1c1c1f" stroke-width="5"/>
<path d="M158 512 Q158 392 256 392 Q354 392 354 512 Z" fill="#8a8a90"/>
<rect x="232" y="344" width="48" height="56" fill="#8a8a90"/>
<line x1="196" y1="152" x2="196" y2="126" stroke="#8a8a90" stroke-width="5" stroke-opacity="1" stroke-linecap="round"/><line x1="316" y1="152" x2="316" y2="126" stroke="#8a8a90" stroke-width="5" stroke-opacity="1" stroke-linecap="round"/><circle cx="196" cy="120" r="7" fill="#ffffff"/><circle cx="316" cy="120" r="7" fill="#ffffff"/>
<path d="M164 152 H348 V342 H164 Z" fill="#d8d8dc"/>
<path d="M192 222 L242 232 L242 244 L192 234 Z" fill="#ffffff"/><path d="M320 222 L270 232 L270 244 L320 234 Z" fill="#ffffff"/><rect x="212" y="288" width="88" height="12" fill="#8a8a90" rx="6"/>
<rect x="120" y="438" width="52" height="36" fill="#ffffff" rx="10"/><rect x="130" y="446" width="32" height="20" fill="#1c1c1f" rx="5"/>
</svg>
