<svg xmlns="http://www.w3.org/2000/svg" width="512" height="512" viewBox="0 0 512 512" role="img" aria-label="Pilot agent avatar">
<rect x="0" y="0" width="512" height="512" fill="#1c1c1f"/>
<path d="M0 70 Q128 48 256 70 T512 70" fill="none" stroke="#b0b0b8" stroke-width="2.5" stroke-opacity="0.16" stroke-linecap="round"/><path d="M0 132 Q128 110 256 132 T512 132" fill="none" stroke="#b0b0b8" stroke-width="2.5" stroke-opacity="0.16" stroke-linecap="round"/><path d="M0 194 Q128 172 256 194 T512 194" fill="none" stroke="#b0b0b8" stroke-width="2.5" stroke-opacity="0.16" stroke-linecap="round"/><path d="M0 256 Q128 234 256 256 T512 256" fill="none" stroke="#b0b0b8" stroke-width="2.5" stroke-opacity="0.16" stroke-linecap="round"/><path d="M0 318 Q128 296 256 318 T512 318" fill="none" stroke="#b0b0b8" stroke-width="2.5" stroke-opacity="0.16" stroke-linecap="round"/><path d="M0 380 Q128 358 256 380 T512 380" fill="none" stroke="#b0b0b8" stroke-width="2.5" stroke-opacity="0.16" stroke-linecap="round"/><path d="M0 442 Q128 420 256 442 T512 442" fill="none" stroke="#b0b0b8" stroke-width="2.5" stroke-opacity="0.16" stroke-linecap="round"/>
<rect x="96" y="384" width="40" height="106" fill="#8a8a90" rx="18"/><rect x="376" y="384" width="40" height="106" fill="#8a8a90" rx="18"/>
<rect x="124" y="402" width="44" height="110" fill="#8a8a90" rx="22" stroke="#1c1c1f" stroke-width="5"/>
<rect x="344" y="402" width="44" height="110" fill="#8a8a90" rx="22" stroke="#1c1c1f" stroke-width="5"/>
<path d="M158 512 Q158 392 256 392 Q354 392 354 512 Z" fill="#8a8a90"/>
<rect x="232" y="344" width="48" height="56" fill="#8a8a90"/>
<line x1="148" y1="222" x2="120" y2="202" stroke="#8a8a90" stroke-width="6" stroke-opacity="1" stroke-linecap="round"/><line x1="364" y1="222" x2="392" y2="202" stroke="#8a8a90" stroke-width="6" stroke-opacity="1" stroke-linecap="round"/>
<path d="M148 262 Q148 142 256 142 Q364 142 364 262 V330 Q364 348 340 348 H172 Q148 348 148 330 Z" fill="#d8d8dc"/>
<circle cx="214" cy="244" r="20" fill="#ffffff"/><path d="M274 244 Q296 226 318 244" fill="none" stroke="#ffffff" stroke-width="9" stroke-opacity="1" stroke-linecap="round"/><path d="M210 296 Q256 332 302 296" fill="none" stroke="#8a8a90" stroke-width="7" stroke-opacity="1" stroke-linecap="round"/>
<path d="M212 398 L232 512" fill="none" stroke="#ffffff" stroke-width="15" stroke-opacity="1" stroke-linecap="round"/><path d="M300 398 L280 512" fill="none" stroke="#ffffff" stroke-width="15" stroke-opacity="1" stroke-linecap="round"/>
</svg>
