<svg xmlns="http://www.w3.org/2000/svg" width="512" height="512" viewBox="0 0 512 512" role="img" aria-label="Operator agent avatar">
<rect x="0" y="0" width="512" height="512" fill="#1c1c1f"/>
<rect x="8" y="8" width="7" height="9" fill="#ffffff" fill-opacity="0.2"/><rect x="501" y="365" width="7" height="9" fill="#b0b0b8" fill-opacity="0.2"/><rect x="484" y="229" width="7" height="9" fill="#b0b0b8" fill-opacity="0.2"/><rect x="467" y="93" width="7" height="9" fill="#ffffff" fill-opacity="0.2"/><rect x="450" y="450" width="7" height="9" fill="#b0b0b8" fill-opacity="0.2"/><rect x="433" y="314" width="7" height="9" fill="#b0b0b8" fill-opacity="0.2"/><rect x="416" y="178" width="7" height="9" fill="#ffffff" fill-opacity="0.2"/><rect x="399" y="42" width="7" height="9" fill="#b0b0b8" fill-opacity="0.2"/><rect x="382" y="399" width="7" height="9" fill="#b0b0b8" fill-opacity="0.2"/><rect x="365" y="263" width="7" height="9" fill="#ffffff" fill-opacity="0.2"/><rect x="348" y="127" width="7" height="9" fill="#b0b0b8" fill-opacity="0.2"/><rect x="331" y="484" width="7" height="9" fill="#b0b0b8" fill-opacity="0.2"/><rect x="314" y="348" width="7" height="9" fill="#ffffff" fill-opacity="0.2"/><rect x="297" y="212" width="7" height="9" fill="#b0b0b8" fill-opacity="0.2"/><rect x="280" y="76" width="7" height="9" fill="#b0b0b8" fill-opacity="0.2"/><rect x="263" y="433" width="7" height="9" fill="#ffffff" fill-opacity="0.2"/><rect x="246" y="297" width="7" height="9" fill="#b0b0b8" fill-opacity="0.2"/><rect x="229" y="161" width="7" height="9" fill="#b0b0b8" fill-opacity="0.2"/><rect x="212" y="25" width="7" height="9" fill="#ffffff" fill-opacity="0.2"/><rect x="195" y="382" width="7" height="9" fill="#b0b0b8" fill-opacity="0.2"/><rect x="178" y="246" width="7" height="9" fill="#b0b0b8" fill-opacity="0.2"/><rect x="161" y="110" width="7" height="9" fill="#ffffff" fill-opacity="0.2"/><rect x="144" y="467" width="7" height="9" fill="#b0b0b8" fill-opacity="0.2"/><rect x="127" y="331" width="7" height="9" fill="#b0b0b8" fill-opacity="0.2"/><rect x="110" y="195" width="7" height="9" fill="#ffffff" fill-opacity="0.2"/><rect x="93" y="59" width="7" height="9" fill="#b0b0b8" fill-opacity="0.2"/><rect x="76" y="416" width="7" height="9" fill="#b0b0b8" fill-opacity="0.2"/><rect x="59" y="280" width="7" height="9" fill="#ffffff" fill-opacity="0.2"/><rect x="42" y="144" width="7" height="9" fill="#b0b0b8" fill-opacity="0.2"/><rect x="25" y="8" width="7" height="9" fill="#b0b0b8" fill-opacity="0.2"/><rect x="8" y="365" width="7" height="9" fill="#ffffff" fill-opacity="0.2"/><rect x="501" y="229" width="7" height="9" fill="#b0b0b8" fill-opacity="0.2"/><rect x="484" y="93" width="7" height="9" fill="#b0b0b8" fill-opacity="0.2"/><rect x="467" y="450" width="7" height="9" fill="#ffffff" fill-opacity="0.2"/><rect x="450" y="314" width="7" height="9" fill="#b0b0b8" fill-opacity="0.2"/><rect x="433" y="178" width="7" height="9" fill="#b0b0b8" fill-opacity="0.2"/><rect x="416" y="42" width="7" height="9" fill="#ffffff" fill-opacity="0.2"/><rect x="399" y="399" width="7" height="9" fill="#b0b0b8" fill-opacity="0.2"/><rect x="382" y="263" width="7" height="9" fill="#b0b0b8" fill-opacity="0.2"/><rect x="365" y="127" width="7" height="9" fill="#ffffff" fill-opacity="0.2"/><rect x="348" y="484" width="7" height="9" fill="#b0b0b8" fill-opacity="0.2"/><rect x="331" y="348" width="7" height="9" fill="#b0b0b8" fill-opacity="0.2"/><rect x="314" y="212" width="7" height="9" fill="#ffffff" fill-opacity="0.2"/><rect x="297" y="76" width="7" height="9" fill="#b0b0b8" fill-opacity="0.2"/><rect x="280" y="433" width="7" height="9" fill="#b0b0b8" fill-opacity="0.2"/><rect x="263" y="297" width="7" height="9" fill="#ffffff" fill-opacity="0.2"/><rect x="246" y="161" width="7" height="9" fill="#b0b0b8" fill-opacity="0.2"/><rect x="229" y="25" width="7" height="9" fill="#b0b0b8" fill-opacity="0.2"/><rect x="212" y="382" width="7" height="9" fill="#ffffff" fill-opacity="0.2"/><rect x="195" y="246" width="7" height="9" fill="#b0b0b8" fill-opacity="0.2"/><rect x="178" y="110" width="7" height="9" fill="#b0b0b8" fill-opacity="0.2"/><rect x="161" y="467" width="7" height="9" fill="#ffffff" fill-opacity="0.2"/><rect x="144" y="331" width="7" height="9" fill="#b0b0b8" fill-opacity="0.2"/><rect x="127" y="195" width="7" height="9" fill="#b0b0b8" fill-opacity="0.2"/><rect x="110" y="59" width="7" height="9" fill="#ffffff" fill-opacity="0.2"/><rect x="93" y="416" width="7" height="9" fill="#b0b0b8" fill-opacity="0.2"/><rect x="76" y="280" width="7" height="9" fill="#b0b0b8" fill-opacity="0.2"/><rect x="59" y="144" width="7" height="9" fill="#ffffff" fill-opacity="0.2"/><rect x="42" y="8" width="7" height="9" fill="#b0b0b8" fill-opacity="0.2"/><rect x="25" y="365" width="7" height="9" fill="#b0b0b8" fill-opacity="0.2"/>
<path d="M146 356 Q64 452 84 512 H428 Q448 452 366 356 Z" fill="#ffffff" fill-opacity="0.85"/>
<rect x="124" y="402" width="44" height="110" fill="#8a8a90" rx="22" stroke="#1c1c1f" stroke-width="5"/>
<rect x="344" y="402" width="44" height="110" fill="#8a8a90" rx="22" stroke="#1c1c1f" stroke-width="5"/>
<path d="M158 512 Q158 392 256 392 Q354 392 354 512 Z" fill="#8a8a90"/>
<rect x="232" y="344" width="48" height="56" fill="#8a8a90"/>
<line x1="196" y1="152" x2="196" y2="126" stroke="#8a8a90" stroke-width="5" stroke-opacity="1" stroke-linecap="round"/><line x1="316" y1="152" x2="316" y2="126" stroke="#8a8a90" stroke-width="5" stroke-opacity="1" stroke-linecap="round"/><circle cx="196" cy="120" r="7" fill="#ffffff"/><circle cx="316" cy="120" r="7" fill="#ffffff"/>
<path d="M164 152 H348 V342 H164 Z" fill="#d8d8dc"/>
<circle cx="214" cy="234" r="20" fill="#ffffff"/><path d="M274 234 Q296 216 318 234" fill="none" stroke="#ffffff" stroke-width="9" stroke-opacity="1" stroke-linecap="round"/><path d="M210 286 Q256 322 302 286" fill="none" stroke="#8a8a90" stroke-width="7" stroke-opacity="1" stroke-linecap="round"/>

</svg>
