<svg xmlns="http://www.w3.org/2000/svg" width="512" height="512" viewBox="0 0 512 512" role="img" aria-label="Pilot agent avatar">
<rect x="0" y="0" width="512" height="512" fill="#2f261c"/>
<path d="M0 30 H90 V70" fill="none" stroke="#e0c98f" stroke-width="2" stroke-opacity="0.2" stroke-linecap="round"/><circle cx="90" cy="70" r="4" fill="#7f9c5a" fill-opacity="0.35"/><path d="M0 90 H137 V130" fill="none" stroke="#e0c98f" stroke-width="2" stroke-opacity="0.2" stroke-linecap="round"/><circle cx="137" cy="130" r="4" fill="#7f9c5a" fill-opacity="0.35"/><path d="M0 150 H184 V190" fill="none" stroke="#e0c98f" stroke-width="2" stroke-opacity="0.2" stroke-linecap="round"/><circle cx="184" cy="190" r="4" fill="#7f9c5a" fill-opacity="0.35"/><path d="M0 210 H231 V250" fill="none" stroke="#e0c98f" stroke-width="2" stroke-opacity="0.2" stroke-linecap="round"/><circle cx="231" cy="250" r="4" fill="#7f9c5a" fill-opacity="0.35"/><path d="M0 270 H278 V310" fill="none" stroke="#e0c98f" stroke-width="2" stroke-opacity="0.2" stroke-linecap="round"/><circle cx="278" cy="310" r="4" fill="#7f9c5a" fill-opacity="0.35"/><path d="M0 330 H325 V370" fill="none" stroke="#e0c98f" stroke-width="2" stroke-opacity="0.2" stroke-linecap="round"/><circle cx="325" cy="370" r="4" fill="#7f9c5a" fill-opacity="0.35"/><path d="M0 390 H112 V430" fill="none" stroke="#e0c98f" stroke-width="2" stroke-opacity="0.2" stroke-linecap="round"/><circle cx="112" cy="430" r="4" fill="#7f9c5a" fill-opacity="0.35"/><path d="M0 450 H159 V490" fill="none" stroke="#e0c98f" stroke-width="2" stroke-opacity="0.2" stroke-linecap="round"/><circle cx="159" cy="490" r="4" fill="#7f9c5a" fill-opacity="0.35"/>

<rect x="124" y="402" width="44" height="110" fill="#8a6d1f" rx="22" stroke="#2f261c" stroke-width="5"/>
<rect x="344" y="402" width="44" height="110" fill="#8a6d1f" rx="22" stroke="#2f261c" stroke-width="5"/>
<path d="M158 512 Q158 392 256 392 Q354 392 354 512 Z" fill="#8a6d1f"/>
<rect x="232" y="344" width="48" height="56" fill="#8a6d1f"/>
<line x1="148" y1="222" x2="120" y2="202" stroke="#8a6d1f" stroke-width="6" stroke-opacity="1" stroke-linecap="round"/><line x1="364" y1="222" x2="392" y2="202" stroke="#8a6d1f" stroke-width="6" stroke-opacity="1" stroke-linecap="round"/>
<path d="M148 262 Q148 142 256 142 Q364 142 364 262 V330 Q364 348 340 348 H172 Q148 348 148 330 Z" fill="#c9a227"/>
<path d="M190 228 L244 242 L244 256 L190 246 Z" fill="#7f9c5a"/><path d="M322 228 L268 242 L268 256 L322 246 Z" fill="#7f9c5a"/><path d="M214 306 H298" fill="none" stroke="#8a6d1f" stroke-width="8" stroke-opacity="1" stroke-linecap="round"/>
<circle cx="322" cy="424" r="26" fill="#7f9c5a"/><circle cx="322" cy="424" r="13" fill="#2f261c" fill-opacity="0.5"/>
</svg>
