<svg xmlns="http://www.w3.org/2000/svg" width="512" height="512" viewBox="0 0 512 512" role="img" aria-label="Guardian agent avatar">
<rect x="0" y="0" width="512" height="512" fill="#1c1c1f"/>
<rect x="0" y="300" width="512" height="212" fill="#2b2b30" fill-opacity="0.6"/>
<rect x="96" y="384" width="40" height="106" fill="#8a8a90" rx="18"/><rect x="376" y="384" width="40" height="106" fill="#8a8a90" rx="18"/>
<rect x="124" y="402" width="44" height="110" fill="#8a8a90" rx="22" stroke="#1c1c1f" stroke-width="5"/>
<rect x="344" y="402" width="44" height="110" fill="#8a8a90" rx="22" stroke="#1c1c1f" stroke-width="5"/>
<path d="M158 512 Q158 392 256 392 Q354 392 354 512 Z" fill="#8a8a90"/>
<rect x="232" y="344" width="48" height="56" fill="#8a8a90"/>
<path d="M256 108 L272 140 H240 Z" fill="#ffffff"/>
<path d="M154 148 H358 V262 Q358 336 256 356 Q154 336 154 262 Z" fill="#d8d8dc"/>
<path d="M192 220 L242 230 L242 242 L192 232 Z" fill="#ffffff"/><path d="M320 220 L270 230 L270 242 L320 232 Z" fill="#ffffff"/><rect x="212" y="286" width="88" height="12" fill="#8a8a90" rx="6"/>
<path d="M212 398 L232 512" fill="none" stroke="#ffffff" stroke-width="15" stroke-opacity="1" stroke-linecap="round"/><path d="M300 398 L280 512" fill="none" stroke="#ffffff" stroke-width="15" stroke-opacity="1" stroke-linecap="round"/>
</svg>
