<svg xmlns="http://www.w3.org/2000/svg" width="512" height="512" viewBox="0 0 512 512" role="img" aria-label="Analyst agent avatar">
<rect x="0" y="0" width="512" height="512" fill="#2b0f2b"/>
<circle cx="470" cy="40" r="120" fill="#ff5f6d" fill-opacity="0.16"/><line x1="470" y1="40" x2="470" y2="132" stroke="#ffd166" stroke-width="2" stroke-opacity="0.14" stroke-linecap="round"/><line x1="470" y1="40" x2="412" y2="178" stroke="#ffd166" stroke-width="2" stroke-opacity="0.14" stroke-linecap="round"/><line x1="470" y1="40" x2="354" y2="224" stroke="#ffd166" stroke-width="2" stroke-opacity="0.14" stroke-linecap="round"/><line x1="470" y1="40" x2="296" y2="270" stroke="#ffd166" stroke-width="2" stroke-opacity="0.14" stroke-linecap="round"/><line x1="470" y1="40" x2="238" y2="316" stroke="#ffd166" stroke-width="2" stroke-opacity="0.14" stroke-linecap="round"/><line x1="470" y1="40" x2="180" y2="362" stroke="#ffd166" stroke-width="2" stroke-opacity="0.14" stroke-linecap="round"/><line x1="470" y1="40" x2="122" y2="408" stroke="#ffd166" stroke-width="2" stroke-opacity="0.14" stroke-linecap="round"/><line x1="470" y1="40" x2="64" y2="454" stroke="#ffd166" stroke-width="2" stroke-opacity="0.14" stroke-linecap="round"/><line x1="470" y1="40" x2="6" y2="500" stroke="#ffd166" stroke-width="2" stroke-opacity="0.14" stroke-linecap="round"/><line x1="470" y1="40" x2="-52" y2="546" stroke="#ffd166" stroke-width="2" stroke-opacity="0.14" stroke-linecap="round"/>
<rect x="96" y="384" width="40" height="106" fill="#c25a2a" rx="18"/><rect x="376" y="384" width="40" height="106" fill="#c25a2a" rx="18"/>
<rect x="124" y="402" width="44" height="110" fill="#c25a2a" rx="22" stroke="#2b0f2b" stroke-width="5"/>
<rect x="344" y="402" width="44" height="110" fill="#c25a2a" rx="22" stroke="#2b0f2b" stroke-width="5"/>
<path d="M158 512 Q158 392 256 392 Q354 392 354 512 Z" fill="#c25a2a"/>
<rect x="232" y="344" width="48" height="56" fill="#c25a2a"/>
<circle cx="256" cy="116" r="9" fill="#ffd166" fill-opacity="0.9"/>
<path d="M256 134 L358 190 L358 296 L256 352 L154 296 L154 190 Z" fill="#ff8c42"/>
<circle cx="214" cy="238" r="20" fill="#ffd166"/><path d="M274 238 Q296 220 318 238" fill="none" stroke="#ffd166" stroke-width="9" stroke-opacity="1" stroke-linecap="round"/><path d="M210 290 Q256 326 302 290" fill="none" stroke="#c25a2a" stroke-width="7" stroke-opacity="1" stroke-linecap="round"/>
<path d="M212 398 L232 512" fill="none" stroke="#ffd166" stroke-width="15" stroke-opacity="1" stroke-linecap="round"/><path d="M300 398 L280 512" fill="none" stroke="#ffd166" stroke-width="15" stroke-opacity="1" stroke-linecap="round"/>
</svg>
