<svg xmlns="http://www.w3.org/2000/svg" width="512" height="512" viewBox="0 0 512 512" role="img" aria-label="Operator agent avatar">
<rect x="0" y="0" width="512" height="512" fill="#2a2118"/>
<rect x="0" y="300" width="512" height="212" fill="#3d3020" fill-opacity="0.6"/>

<rect x="124" y="402" width="44" height="110" fill="#a8905c" rx="22" stroke="#2a2118" stroke-width="5"/>
<rect x="344" y="402" width="44" height="110" fill="#a8905c" rx="22" stroke="#2a2118" stroke-width="5"/>
<path d="M158 512 Q158 392 256 392 Q354 392 354 512 Z" fill="#a8905c"/>
<rect x="232" y="344" width="48" height="56" fill="#a8905c"/>
<line x1="196" y1="152" x2="196" y2="126" stroke="#a8905c" stroke-width="5" stroke-opacity="1" stroke-linecap="round"/><line x1="316" y1="152" x2="316" y2="126" stroke="#a8905c" stroke-width="5" stroke-opacity="1" stroke-linecap="round"/><circle cx="196" cy="120" r="7" fill="#b5533c"/><circle cx="316" cy="120" r="7" fill="#b5533c"/>
<path d="M164 152 H348 V342 H164 Z" fill="#e8d5a3"/>
<circle cx="214" cy="234" r="20" fill="#b5533c"/><path d="M274 234 Q296 216 318 234" fill="none" stroke="#b5533c" stroke-width="9" stroke-opacity="1" stroke-linecap="round"/><path d="M210 286 Q256 322 302 286" fill="none" stroke="#a8905c" stroke-width="7" stroke-opacity="1" stroke-linecap="round"/>
<circle cx="322" cy="424" r="26" fill="#b5533c"/><circle cx="322" cy="424" r="13" fill="#2a2118" fill-opacity="0.5"/>
</svg>
